<svg width="50" height="50" viewBox="0 0 50 50" fill="none" xmlns="http://www.w3.org/2000/svg">
<path d="M10.5469 19.5312C12.3238 19.5312 14.0609 19.0043 15.5383 18.0171C17.0158 17.0299 18.1673 15.6267 18.8474 13.985C19.5274 12.3434 19.7053 10.5369 19.3586 8.79411C19.012 7.05131 18.1563 5.45045 16.8998 4.19396C15.6433 2.93748 14.0424 2.0818 12.2996 1.73513C10.5568 1.38847 8.75038 1.56639 7.1087 2.2464C5.46702 2.9264 4.06386 4.07795 3.07664 5.55542C2.08942 7.0329 1.5625 8.76993 1.5625 10.5469C1.56508 12.9289 2.51248 15.2126 4.19682 16.8969C5.88115 18.5813 8.16486 19.5287 10.5469 19.5312ZM10.5469 4.6875C11.7057 4.6875 12.8386 5.03115 13.8022 5.67498C14.7657 6.31882 15.5167 7.23393 15.9602 8.30459C16.4037 9.37525 16.5197 10.5534 16.2937 11.69C16.0676 12.8266 15.5095 13.8706 14.6901 14.6901C13.8706 15.5095 12.8266 16.0676 11.69 16.2937C10.5534 16.5198 9.37525 16.4037 8.30459 15.9602C7.23393 15.5168 6.31882 14.7657 5.67498 13.8022C5.03115 12.8386 4.6875 11.7057 4.6875 10.5469C4.68926 8.99341 5.30715 7.50408 6.40561 6.40561C7.50408 5.30715 8.99341 4.68926 10.5469 4.6875ZM46.5759 3.73633C45.184 2.34446 43.2962 1.56252 41.3278 1.56252C39.3594 1.56252 37.4717 2.34446 36.0798 3.73633L35.5451 4.271C33.4805 6.33629 31.4957 8.47979 29.5949 10.6968L29.5639 10.7329L16.0063 28.6589L7.6707 36.9946C6.8853 36.5434 5.9627 36.3927 5.07455 36.5708C4.18641 36.7489 3.39319 37.2435 2.84246 37.9627C2.29173 38.6819 2.02099 39.5766 2.08062 40.4805C2.14025 41.3843 2.52617 42.2358 3.1666 42.8764L7.12363 46.8333C7.76449 47.4732 8.61592 47.8587 9.51964 47.9181C10.4234 47.9774 11.3179 47.7066 12.0369 47.1559C12.756 46.6053 13.2506 45.8123 13.4289 44.9244C13.6072 44.0364 13.457 43.1139 13.0063 42.3284L21.3305 34.0042L38.8988 21.2347L38.981 21.1708C41.6154 18.9731 44.1495 16.658 46.5758 14.2324C47.9656 12.8395 48.7461 10.9521 48.7461 8.9844C48.7461 7.01669 47.9656 5.12933 46.5759 3.73633ZM44.366 12.0228C42.0185 14.3695 39.5671 16.61 37.0193 18.7377L19.2945 31.6211L8.67715 42.2382L10.1979 43.7591C10.2556 43.8156 10.3015 43.8831 10.3331 43.9575C10.3646 44.0319 10.381 44.1118 10.3814 44.1926C10.3819 44.2734 10.3663 44.3535 10.3355 44.4283C10.3048 44.503 10.2596 44.5709 10.2024 44.6281C10.1453 44.6852 10.0774 44.7305 10.0026 44.7612C9.92788 44.792 9.84779 44.8076 9.76697 44.8072C9.68616 44.8067 9.60623 44.7903 9.53181 44.7588C9.45739 44.7273 9.38995 44.6814 9.3334 44.6236L5.37637 40.6667C5.26171 40.5521 5.19729 40.3966 5.19728 40.2344C5.19727 40.0723 5.26167 39.9168 5.37632 39.8021C5.49097 39.6874 5.64646 39.623 5.80861 39.623C5.97075 39.623 6.12626 39.6874 6.24092 39.8021L7.76172 41.3229L18.3691 30.7161L31.999 12.6945C33.8382 10.551 35.7583 8.47819 37.7552 6.48066L38.2898 5.94609C38.6883 5.54475 39.1621 5.22603 39.6841 5.0082C40.206 4.79037 40.7658 4.67772 41.3314 4.67671C41.8969 4.6757 42.4571 4.78635 42.9798 5.00231C43.5025 5.21828 43.9775 5.53531 44.3774 5.93523C44.7773 6.33514 45.0943 6.81007 45.3103 7.33278C45.5263 7.85548 45.6369 8.41568 45.6359 8.98125C45.6349 9.54681 45.5222 10.1066 45.3044 10.6285C45.0866 11.1505 44.7678 11.6243 44.3665 12.0228H44.366Z" fill="black"/>
</svg>
